<?xml version="1.0" encoding="UTF-8"?>
<svg id="Warstwa_1" xmlns="http://www.w3.org/2000/svg" version="1.1" viewBox="0 0 595.28 281.59">
  <!-- Generator: Adobe Illustrator 29.5.1, SVG Export Plug-In . SVG Version: 2.1.0 Build 141)  -->
  <defs>
    <style>
      .st0 {
        fill: #0f594b;
      }
    </style>
  </defs>
  <g>
    <path class="st0" d="M168.85,138.24h52.22v11.04l-26.3,33.64h26.43v16.43h-52.35v-10.91l26.56-33.9h-26.56v-16.29Z"/>
    <path class="st0" d="M255.72,137.45c8.9,0,15.13,3.94,18.68,10.38v-9.59h18.04v61.11h-18.04v-9.46c-3.56,6.3-9.79,10.38-18.68,10.38-14.1,0-27.57-12.88-27.57-31.41s13.47-31.41,27.57-31.41ZM260.29,154.27c-7.88,0-13.98,6.05-13.98,14.58s6.1,14.58,13.98,14.58,14.1-6.17,14.1-14.58-6.23-14.58-14.1-14.58Z"/>
    <path class="st0" d="M302.83,138.24h52.22v11.04l-26.3,33.64h26.43v16.43h-52.35v-10.91l26.56-33.9h-26.56v-16.29Z"/>
    <path class="st0" d="M389.7,137.45c8.9,0,15.13,3.94,18.68,10.38v-9.59h18.04v61.11h-18.04v-9.46c-3.56,6.3-9.79,10.38-18.68,10.38-14.1,0-27.57-12.88-27.57-31.41s13.47-31.41,27.57-31.41ZM394.28,154.27c-7.88,0-13.98,6.05-13.98,14.58s6.1,14.58,13.98,14.58,14.1-6.17,14.1-14.58-6.23-14.58-14.1-14.58Z"/>
  </g>
  <g>
    <path class="st0" d="M216.43,217.59c2.75,0,4.67,1.22,5.77,3.21v-2.96h5.58v18.89h-5.58v-2.92c-1.1,1.95-3.02,3.21-5.77,3.21-4.36,0-8.52-3.98-8.52-9.71s4.16-9.71,8.52-9.71ZM217.85,222.79c-2.43,0-4.32,1.87-4.32,4.51s1.88,4.51,4.32,4.51,4.36-1.91,4.36-4.51-1.92-4.51-4.36-4.51Z"/>
    <path class="st0" d="M245.11,210.97h5.58v25.75h-5.58v-2.92c-1.06,1.95-2.98,3.21-5.69,3.21-4.44,0-8.52-3.94-8.52-9.71s4.08-9.67,8.52-9.67c2.71,0,4.63,1.22,5.69,3.17v-9.83ZM245.11,227.29c0-2.56-1.88-4.47-4.28-4.47s-4.32,1.91-4.32,4.47,1.88,4.51,4.32,4.51,4.28-1.91,4.28-4.51Z"/>
    <path class="st0" d="M258.8,217.83l3.97,12.96,3.97-12.96h5.73l-6.13,18.89h-7.15l-6.13-18.89h5.73Z"/>
    <path class="st0" d="M283.55,217.59c5.03,0,9.35,3.17,9.35,8.41,0,.85-.08,1.75-.35,2.68h-13.47c.55,2.32,2.71,3.74,5.11,3.74,2,0,3.97-.85,5.22-2.07l3.02,3.66c-1.77,1.95-5.03,3.01-8.32,3.01-5.54,0-10.6-3.25-10.6-9.71,0-5.93,3.93-9.71,10.05-9.71ZM283.19,221.81c-2.08,0-4.01,1.46-4.08,3.53h8.25c0-2.32-1.96-3.53-4.16-3.53Z"/>
    <path class="st0" d="M301.67,217.83v2.92c1.14-2.07,3.57-3.21,5.89-3.21,3.81,0,6.36,3.05,6.36,7.96v11.21h-5.62v-10.89c0-1.87-1.14-3.33-3.02-3.33-2-.04-3.61,1.71-3.61,3.9v10.32h-5.62v-18.89h5.62Z"/>
    <path class="st0" d="M324.25,217.83h4.67v4.55h-4.67v7.55c0,1.1.51,1.95,1.53,2.03.86.12,1.92-.29,2.67-.65l1.06,4.59c-1.45.61-3.18,1.06-4.79,1.06-3.97,0-6.09-2.6-6.09-6.58v-8h-2.12v-4.55h2.12c.9-1.46,1.89-3.62,2.83-5.12h2.79v5.12Z"/>
    <path class="st0" d="M337.87,217.83v11.13c0,1.75,1.1,3.17,2.83,3.17,1.89,0,3.42-1.67,3.42-3.7v-10.6h5.58v18.89h-5.58v-2.92c-1.22,2.07-3.69,3.21-5.81,3.21-3.61,0-6.05-2.84-6.05-7.64v-11.53h5.61Z"/>
    <path class="st0" d="M359.24,217.83v3.41c1.3-2.23,3.93-3.7,6.91-3.7v6.05c-.55-.08-1.06-.08-1.61-.08-2.79,0-5.3.97-5.3,4.51v8.69h-5.62v-18.89h5.62Z"/>
    <path class="st0" d="M378.02,217.59c5.03,0,9.35,3.17,9.35,8.41,0,.85-.08,1.75-.35,2.68h-13.47c.55,2.32,2.71,3.74,5.1,3.74,2,0,3.97-.85,5.22-2.07l3.02,3.66c-1.77,1.95-5.03,3.01-8.32,3.01-5.54,0-10.6-3.25-10.6-9.71,0-5.93,3.93-9.71,10.05-9.71ZM377.67,221.81c-2.08,0-4.01,1.46-4.08,3.53h8.25c0-2.32-1.96-3.53-4.16-3.53Z"/>
  </g>
  <g>
    <path class="st0" d="M340.88,80.63v14.4c0,.73-.59,1.31-1.31,1.31h-18.25c-1.17,0-1.75,1.41-.92,2.23l12.91,12.91c.51.51.51,1.34,0,1.85l-10.25,10.24c-.48.48-1.26.51-1.78.06l-5-4.35,10.47-9.18c-13.72-1.57-20.99-8.81-25.71-19.06,1.9,3.42,4.39,6.43,7.94,8.66.84.53,2.35,1.28,2.35,1.28l7.71-6.77c-9.54-1.09-14.84-5.91-18.32-12.79,1.45,2.43,3.32,4.56,5.89,6.19.67.41,1.87,1.01,1.87,1.01l6.12-5.36c-10.01-1.15-14.13-7.46-16.82-15.91-2.83,8.72-7.07,15.18-17.11,15.95l6.19,5.47s.71-.23,2.08-1.11c2.85-1.83,4.83-4.27,6.36-7.03-3.6,7.61-9.04,12.87-19.07,13.63l7.8,6.91s.89-.29,2.62-1.41c3.95-2.54,6.58-6.01,8.59-9.92-4.89,11.29-12.33,19.21-26.74,20.31l10.45,9.25-4.98,4.26c-.52.44-1.29.41-1.77-.07l-10.25-10.25c-.51-.51-.51-1.34,0-1.85l12.91-12.91c.82-.82.24-2.23-.92-2.23h-18.26c-.72,0-1.31-.58-1.31-1.31v-14.4c0-.72.59-1.31,1.31-1.31h18.25c1.16,0,1.75-1.41.92-2.23l-12.91-12.9c-.51-.51-.51-1.34,0-1.85l10.18-10.18c.51-.51,1.34-.51,1.85,0l12.91,12.91c.82.82,2.23.24,2.23-.92v-18.25c0-.72.59-1.31,1.31-1.31h14.39c.73,0,1.31.59,1.31,1.31v18.25c0,1.16,1.41,1.75,2.23.92l12.91-12.91c.51-.51,1.34-.51,1.85,0l10.19,10.18c.51.51.51,1.34,0,1.85l-12.9,12.9c-.83.82-.24,2.23.92,2.23h18.25c.72,0,1.31.59,1.31,1.31Z"/>
    <path class="st0" d="M303.98,108.55l-.33-.29-11.72.1c1.8-2.69,3.26-5.63,4.54-8.68.36-.85,1.47-3.84,1.47-3.84,0,0,.96,2.56,1.18,3.14,1.33,3.39,2.88,6.63,4.86,9.58Z"/>
  </g>
</svg>