<?xml version="1.0" encoding="UTF-8"?>
<svg id="Warstwa_1" xmlns="http://www.w3.org/2000/svg" xmlns:xlink="http://www.w3.org/1999/xlink" version="1.1" viewBox="0 0 630.97 498.99">
  <!-- Generator: Adobe Illustrator 29.5.1, SVG Export Plug-In . SVG Version: 2.1.0 Build 141)  -->
  <defs>
    <style>
      .st0 {
        fill: none;
      }

      .st1 {
        fill: #10594b;
      }

      .st2 {
        opacity: .35;
      }

      .st3 {
        clip-path: url(#clippath);
      }
    </style>
    <clipPath id="clippath">
      <rect class="st0" x="63.08" y="-66.1" width="502.3" height="631.28" transform="translate(563.78 -64.69) rotate(90)"/>
    </clipPath>
  </defs>
  <g class="st2">
    <g class="st3">
      <g>
        <path class="st1" d="M627.87,427.6c-15.15-10.71-31.27-21.4-50.33-23.01-12.94-1.09-23.13,1.01-32.44,10.37-10.27,10.32-11.59,21.13-29.56,20.01-35.75-2.24-28.35-49.98-53.54-66.64-14.72-9.73-23.04.09-35.22,6.9-9.5,5.31-20.68,8.62-31.69,7.93-12.54-.79-23.21-8.12-35.3-10.72-23.31-5.01-46.7,3.11-69.99-1.9-21.39-4.6-35.8-18.42-45.01-37.77-13.27-27.89-12.01-54.99-39.57-74.86-19.41-14-41.43-11.64-62.31-21.1-16.94-7.67-30.14-17.86-31.41-37.94-1.46-23.05,12.17-42.52,14.05-65.85,1.34-16.56-2.41-28.5-6.41-44.09-1.5-5.87-2.73-11.27-5.68-16.7-6.32-11.67-13.21-20.19-7.65-34.71,9.95-25.97,46.19,1.99,59.13,10.7,22.67,15.27,44.42,19.68,70.77,9.93,15.42-5.71,42.17-25.28,49.98-39.83,4.63-8.62,6.11-17.97,5.69-27.71h2.88c.29,11.69-1.93,23.33-8.69,33.03-9.99,14.33-34.88,32.58-51.45,38.03-25.96,8.54-47.59,4.3-69.82-10.57-12.64-8.45-52.38-39.39-57.23-7.53-2.46,16.16,9.24,23.72,13.2,37.52,2.35,8.18,4.97,18.82,6.72,27.16,4.75,22.57-.8,40.09-7.84,60.9-6.94,20.51-9.16,43.51,10.77,57.33,16.47,11.42,31.51,13.05,50.27,17.48,25.51,6.01,43.74,22.48,52.73,46.99,8.67,23.63,11.91,46.92,31.94,64.59,29.31,25.86,67.4,5.72,100.9,15.73,19.61,5.86,27.57,13.83,49.77,6.16,16.4-5.66,27.83-23.09,46.46-12.29,27.76,16.09,20.28,70.01,58.02,67.26,11.74-.85,15.54-11.44,22.69-18.86,11.26-11.68,23.93-13.25,39.58-11.14,16.83,2.26,31.78,12.57,45.57,21.7v3.52Z"/>
        <path class="st1" d="M627.87,386.36c-9.96-9.13-20.25-16.49-33.81-19.08-14.21-2.72-33.24-2.63-43.19,9.34-8.72,10.49-18.61,31.28-35.17,28.46-11.75-2-19.47-20.64-23.68-30.33-5.24-12.07-10-24.66-14.88-36.9-4.85-12.15-7.25-27.14-24.34-17.48-11.53,6.52-17.21,29.26-33.48,23.53-8.05-2.84-15.01-16.06-20.56-22.59-9.72-11.44-18.85-16.21-34.3-14.51-19.05,2.09-36.03,15.99-55.37,4.81-30.91-17.87-21.04-73.4-31.09-102.84-12.04-35.24-48.65-53.7-40.17-96.44,3.17-15.95,9.65-29.7,22.3-40.03,12.82-10.47,23.55-17.02,33.64-30.92,10.86-14.95,15.64-32.27,13.62-50.79h2.88c.88,12.89-.41,25.76-5.7,37.62s-14.57,23.56-23.87,31.74c-8.89,7.82-21.68,14.57-28.53,24.2-4.35,6.12-8.08,15.25-10.12,22.48-13.09,46.3,25.63,63.52,38.51,101.17,9.72,28.41,1.18,76.75,24.91,97.83,19.48,17.31,39.55-.37,60.24-1.76,17.03-1.15,26.28,4.72,36.58,17.43,8.84,10.92,17.93,31.5,33.23,14.05,6.69-7.62,9.76-15.67,20.29-19.34,16.72-5.83,19.2,9.11,23.89,20.86,4.66,11.69,9.17,23.52,14.15,35.07,3.91,9.05,10.5,25.84,20.16,29.7,15.82,6.31,27.78-19.32,36.23-28.56,11.14-12.17,36.11-11.33,50.72-6.97,10.36,3.09,18.73,9.62,26.92,16.39v3.84Z"/>
        <path class="st1" d="M627.87,452.86c-21.36-9.42-48.11-12.89-69.79-.58-13.09,7.43-22.8,24.08-39.53,22.39-9.01-.91-25.68-13.85-32.94-19.79-19.21-15.7-33.33-37.48-60.2-40.34-8.83-.94-17.71.59-26.39-1.41-8.09-1.87-15.73-6.74-23.73-9.5-18.25-6.3-54.22-12.43-71.86-3.79-10.11,4.95-13.06,14.27-26.23,14.37-12.73.1-24.86-4.66-38.37-3.87-13.54.79-26.01,7.99-39.92,7.04-12.47-.85-20.26-8.66-30.51-14.23-10.47-5.69-22.26-8.86-33.4-12.93-32.14-11.76-57.25-24.29-91.76-9.65-15.91,6.75-24.94,18.06-38.54,27.62-20.13,14.15-43.81,19.77-66.86,27.42v-2.89c22.5-7.43,45.57-12.96,65.26-26.77,12.94-9.07,22.12-20.23,36.94-26.98,35.96-16.38,62.13-3.66,95.91,8.69,11.41,4.17,23.34,7.39,34.04,13.25,7.67,4.2,14.97,10.74,23.64,12.8,16.15,3.83,31.14-5.63,47.12-6.25,11.33-.44,21.71,3.15,32.61,3.85,16.72,1.07,16.8-8.19,29.12-14.02,18.67-8.83,55.58-2.7,74.73,4.1,10.15,3.61,18.56,9.56,29.7,10.25,13.82.85,24.13-2.09,37.13,4.73,24.11,12.63,43.1,41.27,67.28,53.08,19.15,9.36,29.17-9.45,43.17-18.2,14.71-9.2,28.64-13.49,45.32-10.43,9.73,1.79,19.11,5.04,28.06,9.17v2.88Z"/>
        <path class="st1" d="M627.87,369.1c-11.13-4.1-22.14-8.68-33.55-11.99-17.1-4.96-31.13-6.99-48.33-.72-7.9,2.88-21.7,11.64-29.81,8.89-6.56-2.22-8.73-14.79-10.86-20.78-5.53-15.51-12.4-31.01-27.41-39.39-12.34-6.88-24.72-6.97-37.4-.87-8.5,4.09-11.26,8.84-20.75,2.14-3.75-2.65-7-6.01-10.91-8.58-16.81-11.04-36.68-10.08-53.86-19.32-28.17-15.16-43.27-50.71-50.64-80.4-1.49-6.01-2.22-11.78-4.39-17.67-7.2-19.55-22.82-29.62-20.37-52.82.9-8.48,4.3-18.51,7.43-26.46,10.04-25.53,29.44-45.08,32.51-73.61,1.34-12.46-1.51-24.7-3.51-36.92h2.88c1.69,11.93,4.67,23.82,3.51,35.96-2.84,29.77-21.67,47.95-32.2,73.92-4.21,10.39-8.95,24.47-8.06,35.73,1.04,13.12,10.29,22.45,16.03,33.52,5.26,10.14,6.38,17.88,9.05,28.67,6.37,25.78,20.06,58.01,42.43,73.59,18.57,12.93,40.2,11,59,22.49,4.49,2.75,13.85,11.72,17.9,12.45s9.78-3.78,13.64-5.56c25.21-11.65,48.46,1.72,60.35,24.56,5.3,10.18,7.31,20.48,11.6,30.59.97,2.28,2.46,5.41,4.99,6.2,6.85,2.11,20.97-6.34,27.9-8.89,21.96-8.08,41.47-2.61,62.55,4.71,6.83,2.37,13.52,5.14,20.28,7.68v2.88Z"/>
        <path class="st1" d="M627.87,156.19c-4.14,4.02-9.18,6.91-13.71,10.42-7.4,5.73-13.99,12.23-19.46,19.85-11.08,15.45-10.44,33.75-21.46,50.14-9.23,13.73-22.28,10.56-36.49,13.04-12.95,2.26-17.84,10.55-26.95,18.43-18.69,16.18-38.6,21.98-62.45,12.31-6.67-2.71-19.47-10.52-26.04-10.39-8.96.19-12.37,4.76-21.23-1.79-16.85-12.45-18.63-40.26-30.58-56.36-7.67-10.34-16.95-12.06-21.87-26.08-7.52-21.44,4.96-36.22,6.09-55.94.53-9.22-1.55-18.59-.97-27.82,1.28-20.24,16.61-44.48,31.8-57.38,10.13-8.61,25.06-15.37,28.43-29.42,2.06-8.58-.51-16.4-2.72-24.62h2.88c2.53,8.72,4.82,17.88,2.08,26.86-4.28,14.03-18.72,20.6-29.07,29.42-14.32,12.19-28.68,34.87-30.52,53.86-.77,7.93.83,15.74.97,23.64.4,23.95-18.01,45.9-1.87,69,3.96,5.66,9.22,8.02,13.69,12.84,15.22,16.42,14.94,42.54,31.42,58.24,7.64,7.27,10.94,3.64,19.54,2.99,10.68-.8,23.67,9.22,34.35,12.3,21.74,6.28,38.05.38,54.47-13.91,7.97-6.94,13.76-15.3,24.64-18.19,14.1-3.74,28.9,1.33,38.29-12.84,7.17-10.82,8.91-20.23,12.49-32.26,4.33-14.57,15.88-27.97,27.67-37.21,5.58-4.37,12.01-7.77,16.58-13.3v4.16Z"/>
        <path class="st1" d="M627.87,495.69c-11.82-7.32-24.05-14.54-37.76-17.68-14.89-3.41-28.65-2.05-43.07,2.51-11.3,3.58-24.94,11.01-36.93,10.07-18.25-1.43-37.61-24.69-52.45-34.48-15.49-10.21-26.72-6.37-43.71-8.05-19.79-1.96-24.89-12.95-39.87-22.77-10.93-7.17-26.36-11.66-26.13,7.28.17,13.7,7.02,32.65-9.36,39.84-6.77,2.97-16.13,4.94-20.48,11.48-5.13,7.7-1.81,16.11-4.02,24.59h-2.88c2.18-7.95-.6-15.84,3.14-23.55,4.77-9.84,15.02-11.26,23.92-15.39,18.19-8.46-.33-38.94,11.13-50.24,9.05-8.92,26.42,3.58,33.99,9.46,8.02,6.23,13.2,12.87,23.62,15.37,16.11,3.87,32.11-1.43,47.45,6.88,16.93,9.17,39.74,38.29,59.49,37.01,10.3-.67,22.2-6.9,32.13-10.05,13.46-4.27,26.18-5.89,40.26-3.54,15.13,2.53,28.69,10.1,41.53,18.07v3.2Z"/>
        <path class="st1" d="M279.9-9.4c1.85,11.09-.04,22.41-8.78,30.06-15.55,13.6-46.4,11.97-65.03,6.54-25.71-7.49-47.09-26.69-75.57-23.81-25.31,2.56-42.96,14.21-63.02,28.38-18.41,13-33.84,30.38-58.9,25.19-3.74-.78-13.2-6.54-16.76-8.8-8.46-5.39-16.08-12.69-25.64-16.23-9.04-3.35-19.06-3.62-28.52-2v-2.87c8.16-.98,16.57-1.18,24.61.79C-14.94,33.44-.66,59.92,25.55,54.38c14.76-3.12,28.04-16.15,40.16-24.72C85.06,15.97,100.29,5.79,124.28,1.62c36.8-6.39,57.45,18.17,90.42,24.95,22.25,4.58,63.28,3.06,63.28-28.14l-.96-7.83h2.88Z"/>
        <path class="st1" d="M208.32,508.48h-2.56c.56-14.4-1.24-27.88-6.07-41.4-7.74-21.72-17.96-36.81-40.19-45.15-17.2-6.46-35.94-5.45-53.82-8.81-16.81-3.16-31.88-15-47.24.89-13.53,14,2.63,26.21,14.81,31.87,19.4,9.02,38.35,14.17,51.79,32.59,6.43,8.81,10.01,19.09,10.74,30.01h-2.88c-.65-19-11.99-33.98-27.19-44.25-13.05-8.82-28.73-12.04-41.61-20.07-14.94-9.32-19.1-24.89-3.01-35.82,16.7-11.34,27.6-1.4,43.94,1.9,18.49,3.73,37.47,2.39,55.42,9.12,18.49,6.93,28.99,17.89,37.26,35.61,7.89,16.91,11.72,34.73,10.59,53.5Z"/>
        <path class="st1" d="M332.94-9.4h3.83c3.6,3.92,6.63,8.39,9.11,13.1,12.87,24.35-10.75,31.94-19.57,50.45-3.52,7.38-3.2,15.1-5.3,22.83-.91,3.35-2.54,6.76-3.33,10.1-1.4,5.89-.74,21.5.76,27.5,2.14,8.54,7.78,13.33,15.44,6.29,11.39-10.45,8.27-22.36,11.28-36.03,3.51-15.94,19.82-38.91,31.37-50.46,6.58-6.59,22.39-19.1,24.75-27.66,1.71-6.2-.19-11.8-4.77-16.13h3.83c3.55,4.27,4.7,8.93,4.07,14.46-1.26,11.02-20.75,25.71-28.51,33.81-9.41,9.81-24.1,31.33-27.54,44.37-3.97,15.05.2,28.52-13.04,40.02-8.88,7.72-16.69,2.7-19.41-7.41-1.83-6.8-2.42-23.24-.71-29.98.96-3.78,2.71-7.51,3.65-11.37,2.53-10.4,1.46-16.49,7.69-26.2,9.18-14.3,27.28-22.97,17.43-42.36-2.87-5.65-6.52-10.89-11.03-15.34Z"/>
        <path class="st1" d="M627.87,199.35c-3.94-.02-8.06.94-11.62,2.6-20.51,9.6-19.09,40.78-39.82,52.23-19.41,10.72-57.35,11.1-66.07,35.56-7.09,19.9,4.56,37,25.32,38.44,19.46,1.34,37.69-3.21,56.96,3.75,11.95,4.32,22.11,13.94,35.22,15.11v2.88c-16.35-1.98-28.09-14.42-44.08-17.75-15.9-3.31-30.65-.27-46.18-1.11-20.89-1.13-35.49-14.97-31.32-36.77,5.82-30.46,44.54-30.89,66.85-41.49,18.35-8.72,19.47-31.2,31.57-45.45,5.48-6.46,14.6-10.96,23.17-10.55v2.56Z"/>
        <path class="st1" d="M296.19,508.48h-2.88c.74-5.21-.5-11.38-1.94-16.44-1.98-6.91-6.31-13.95-7.55-20.9-3.86-21.65,22.88-9.38,33.93-10.3,11.62-.97,10.94-13.63,4.65-20.62-14.91-16.55-34.02,4.72-49.7,5.92-6.48.49-12.58-2.02-18.89-2.83-8.41-1.08-17.7,1.1-24.08,6.82-11.55,10.36-3.15,20.48-.09,32.38,2.35,9.12,2.45,17.16-1.19,25.96h-3.2c2.89-6.01,4.04-12.29,3.11-18.93-2.38-16.93-16.9-31.82,3.63-44.5,18.12-11.19,31.06,2.37,47.66-3.46,10.61-3.73,19.27-11.02,31.41-10.16,11.35.8,22.02,14,17.46,25.17-5.33,13.04-25.28,3.57-35.38,4.25-9.35.62-7.47,8.01-5.27,14.56,1.41,4.2,3.59,8.35,5.04,12.54,2.27,6.58,3.69,13.53,3.28,20.54Z"/>
        <path class="st1" d="M627.87,120.07c-2.75-4.05-6.75-6.56-10.23-9.75-7.2-6.58-13.01-11.3-15.44-21.32-2.25-9.27.35-17.86-1.27-27.5-4.04-23.98-16.27-36.33-36.35-48.35-11.93-7.14-16.45-6.12-29.44-8.27-11.63-1.92-22.63-8.21-32.53-14.29h5.43c8.05,4.85,17.13,9.63,26.46,11.41,13.9,2.66,18.65,1.07,31.67,8.91,21.43,12.91,35.25,27.65,38.01,53.72,1.09,10.31-2.07,18.22,2.22,28.47,3.87,9.25,14.66,15.5,21.47,22.48v4.48Z"/>
        <path class="st1" d="M113.74,508.48c-11.07-13.05-28.44-19.91-44.79-23.76-9.63-2.26-19.53-3.46-29.09-6.06-13.28-3.62-20.51-10.52-34.87-4.34-11.45,4.93-21.39,14.11-33.13,18.97-8.05,3.33-16.65,4.61-24.76,7.52-3.25,1.17-6.24,2.84-9.42,4.16l.2-3.23c11.11-5.85,24.22-6.75,35.49-12.06,10.58-4.98,20.15-13.51,30.88-18.01,15.1-6.33,22.73.66,36.57,4.44,9.13,2.49,18.6,3.62,27.81,5.74,17.93,4.14,37.12,11.66,48.63,26.63h-3.51Z"/>
        <path class="st1" d="M189.15,508.48h-2.88c1.61-13.5-.75-26.47-9.28-37.23s-32.02-26.14-46.13-24.43c-5.73.7-5.36,5.31-2.42,9.07,6.64,8.49,18.14,13.23,24.99,22.63,5.88,8.08,11.84,19.75,10.47,29.96h-2.88c1.23-5.66-.61-11.29-2.92-16.42-3.13-6.94-7.38-13.5-13.05-18.59s-20.54-13.96-21.38-21.45c-1.39-12.47,18.21-7.2,24.46-4.66,17.02,6.94,34.51,20.73,39.57,39.06,2.03,7.34,2.03,14.5,1.44,22.06Z"/>
        <path class="st1" d="M465.87,508.48c-3.11-3.08-6.48-6.02-9.43-9.27-8.43-9.29-14.05-21.71-28.75-21.77-15.53-.06-19.72,17.36-37.34,9.57-1.64-.72-3.41-1.77-4.91-2.76-7.08-4.69-14.1-14.82-22.46-5.04-6.24,7.3-8.78,19.94-9.9,29.26h-2.88c1.39-10.28,4.72-27.1,13.45-33.7,10.13-7.66,18.07,4.68,26.17,8.93,16.43,8.63,20.59-7.58,35.32-8.79,18.01-1.49,23.46,11.61,33.54,22.7,3.52,3.87,7.51,7.34,11.35,10.86h-4.15Z"/>
        <path class="st1" d="M627.87,228.76c-7.96,4.81-10.74,14.28-14.85,22.06-2.71,5.12-6.96,10.52-8.01,16.28-2.02,11.03,6.61,21.82,9.29,32.3,2.92,11.46.34,19.63,9.74,28.94.98.97,2.63,2.34,3.84,3.03v3.52c-4.11-2.82-8.21-6.52-10.71-10.86-4.68-8.14-3.42-16.91-6-25.65-2.89-9.79-9.84-18.46-9.19-29.2.45-7.54,5.43-13.56,8.81-19.96,4.67-8.85,7.69-18.72,17.09-23.98v3.52Z"/>
        <path class="st1" d="M-5.76-9.4H.95c2.48,1.66,5.24,2.86,7.64,4.66C11.28-2.72,13.56.04,16.13,2.1c15.96,12.77,29.13-1.05,41.05-11.5h4.15C48,2.38,32.64,18.82,14.54,4.34,11.52,1.93,8.98-1.24,5.71-3.46c-3.58-2.43-7.69-3.89-11.47-5.94Z"/>
        <path class="st1" d="M627.87,45.59c-5.1-4.69-9.07-10.88-12.91-16.65-7.41-11.13-13.31-24.24-24.37-32.2-3.26-2.35-6.86-4.14-10.33-6.13h6.07c2.99,2.2,6.27,3.96,9.1,6.4,4.19,3.62,7.33,7.72,10.4,12.29,7.27,10.83,13.31,22.69,22.04,32.45v3.84Z"/>
        <path class="st1" d="M285.01,508.48h-2.88c-2.62-7.12-5.22-21.25-15.91-18-7.15,2.17-12.82,11.4-15.4,18h-2.88c2.96-8.73,11.47-21.69,21.9-21.11,10.21.56,12.29,13.53,15.16,21.11Z"/>
        <path class="st1" d="M-62.32,340.97v-2.88c7.91-.62,16.25-2.8,23.72-5.51,13.59-4.94,20.16-11.24,31.27-19.55,20.35-15.21,35.04-9.57,54.9,2.87,18.81,11.78,33.32,24.55,54.23,33.97,24.65,11.11,58.66,15.15,83.73,3.3,47.87-22.64-5.98-66.55-32.05-79.29-18.35-8.97-37.79-16.2-51.72-32.01-18.33-20.8-15.27-61.77-21.4-87.92-7.12-30.37-34.56-34.94-61.84-30.21-29.88,5.17-57.02,22.63-80.83,40.45l.29-3.7c24.38-17.86,52.99-35.98,83.63-40.05,31.42-4.17,56.08,3.73,62.32,37.3,4.5,24.22,3.35,63.45,19.92,82.37,17.88,20.42,45.16,25.72,66.56,40.51,19.52,13.49,53.71,44.63,27.38,67.88-20.03,17.69-59.05,17.07-83.15,9.33-16.47-5.28-33.3-14.94-47.52-24.71-15.1-10.38-37.36-29.8-56.92-26.2-10.7,1.97-20.83,13.06-29.79,19.11-12.59,8.49-27.71,13.13-42.73,14.96Z"/>
        <path class="st1" d="M-62.32,311.24v-2.88c14.42,0,29.2-3.82,41.75-10.81,18.01-10.04,33.79-29.19,56.56-19.61,26.56,11.17,44.7,39.27,71.6,48.89,22.2,7.94,40.19-2.74,30.68-27.5-6.9-17.97-22.74-26.31-36.5-37.96-15.11-12.8-30-26.46-37.7-45.08-11.08-26.77-12.85-67.08-52.37-62.29-12.81,1.55-26.7,9.74-37.56,16.45-12.53,7.75-24.6,16.34-36.45,25.07.14-.98-.3-2.69.16-3.51.2-.37,5.86-4.39,6.77-5.06,7.73-5.66,16.32-11.35,24.41-16.5,12.61-8.02,29.37-18.4,44.55-19.36,43.14-2.73,41.6,42.29,55.79,70.45,6.99,13.86,22.19,27.57,34,37.59,12.63,10.72,26.17,18.03,34.6,33.16,16.75,30.06-5.17,48.4-34.75,35.73-23.48-10.06-39.96-32.55-62.42-44.64-25.47-13.71-37.02,2.86-57.31,15.02-9.38,5.62-19.95,9.54-30.77,11.42-5.07.88-9.92,1.13-15.03,1.43Z"/>
        <path class="st1" d="M-62.32,114l.19-2.91c9.66-2.74,19.41-5.66,29.41-6.95,22.15-2.86,43.41,1.55,65.68-2.06,13.3-2.16,33.43-3.35,44-10.96,5.69-4.09,10.68-12.42,3.57-17.83-9.59-7.3-16.55,2.49-24.32,7.29-22.46,13.87-48.72,5.14-72.25-.87-1.2-.31-3.59-.47-4.49-.87-.38-.17-.35-.73-.78-.89-1.46-.54-7.43-1.22-9.22-1.33-10.58-.66-21.19.51-31.31,3.52-.98.05-.31-2.18-.47-2.87,9.2-2.29,18.4-3.86,27.96-3.55,28.51.93,55.52,20.36,84.4,7.1,8.41-3.86,8.4-7.98,17.14-10.97,17.07-5.85,26.73,10.67,13.01,22.29-9.59,8.12-26.38,8.83-38.93,11.23-12.29,2.34-21.2,3.34-33.76,2.96-13.01-.39-25.97-1.28-38.95.37-10.5,1.33-20.74,4.44-30.87,7.31Z"/>
        <path class="st1" d="M-62.32,284.71v-2.88c2.18-.17,4.35-.81,6.46-1.37,12.43-3.32,23.5-6.29,34.22-13.71,6.84-4.74,12.65-10.95,20.24-14.6,13.19-6.34,27.25-3.64,31.91-21.15,7.17-26.96-25.77-37.55-46.6-34.47-16.21,2.4-30.64,14.2-45.76,20.08-.85.25-.56-2.62-.15-3.03,3.71-1.87,7.58-3.47,11.3-5.32,12.76-6.34,23.88-14.1,38.71-14.98,24.06-1.42,56.57,13.86,43.57,42.95-6.57,14.7-20.01,12.51-32.24,18.57-7.17,3.56-13,9.78-19.57,14.31-12.55,8.66-27.38,12.29-42.09,15.59Z"/>
        <path class="st1" d="M265.11,391.73c.31,3.35-1.78,5.72-4.85,6.79-7.7,2.68-19.4-2.39-27.8-2.9-11.26-.68-18.85,5.4-29.69,4.45-9.57-.84-30.43-10.2-24.66-22.67,4.24-9.15,18.71-5.2,26.22-4.78,17.69.98,32.05-8.6,49.09,2.68,4.56,3.02,11.18,10.87,11.69,16.44ZM262.26,391.06c-.18-.78-2.74-5.72-3.31-6.59-13.1-20-37.53-8.22-56.22-9.29-6.02-.34-11.16-2.38-17.25-.35-8.69,2.91-5.65,10.71-.3,15.35,4.61,3.99,13.43,7.01,19.49,7.36,8.25.48,16.03-4.8,24.92-4.82,8.04-.01,15.53,3.18,23.05,3.82,3.69.32,10.9-.06,9.64-5.49Z"/>
        <path class="st1" d="M58.26,252.85c9.1-8.64,19.66,9.33,24.18,15.06,3.64,4.62,7.23,8.49,12.03,11.94,5.11,3.68,11.43,6.21,16.08,10.44,7.66,6.96,13.38,20.76-1.8,22.18-16.96,1.59-41.07-21.9-48.94-35.67-3.53-6.16-7.6-18.21-1.55-23.96ZM115.58,303.17c-1.51-11.48-20.55-18.3-28.36-25.66-6.63-6.24-11.25-16.08-17.88-21.43-8.54-6.89-12.43.96-11.16,9.24,2.34,15.14,26.87,38.2,41.02,43.04,4.32,1.47,10.41,2.25,14.45-.26,2.02-1.26,2.24-2.6,1.94-4.93Z"/>
        <path class="st1" d="M36.66,446.41c.28,5.68-3.91,7.97-9.02,8.38-8.46.67-15.89-1.72-24.52.72-9.41,2.65-22.63,16.19-32.51,12.85-6.7-2.27-3.86-11.08-1.67-15.72,7.46-15.77,22.94-25.25,40.47-25.04,9.77.12,26.69,7.46,27.25,18.81ZM33.78,445.42c-1.04-6.56-10.47-12.06-16.3-13.75-13.09-3.77-30.74,1.72-39.54,12.08-4.77,5.62-17.09,26.01-.09,21.65,8.2-2.1,15.15-9.47,23.34-12.14,5.1-1.66,10.23-1.9,15.58-1.7,5.4.2,18.48,3.19,17-6.14Z"/>
        <path class="st1" d="M-62.32,417.37v-2.86c3.92-.74,8.08-1.87,11.72-3.47,9.85-4.35,14.6-13.41,21.98-20.52,6.9-6.64,25.47-18.81,26.38-28.59.58-6.28-2.06-8.93-8.17-9.44-11.33-.95-20.51,6.5-30.08,11.14-6.92,3.36-14.29,5.84-21.84,7.4l.03-2.84c5.79-1.14,11.49-2.96,16.89-5.32,12.34-5.39,21.76-14.27,36.27-12.93,3.35.31,7.17,1.9,8.63,5.11,6.7,14.72-17.68,29.12-26.36,37.56-5.63,5.47-9.94,12.42-16.33,17.23-5.54,4.17-12.43,6.13-19.14,7.54Z"/>
        <path class="st1" d="M-62.32,269.68v-2.86c6.97-1.71,14.45-4.57,19.81-9.44,6.57-5.96,8.05-14.05,16.72-18.12,7.6-3.57,25.67-4.46,18.8-17.74-7.78-15.05-35.21,1.08-46.64,3-1.13.19-8.36,1.07-8.7.73l.02-2.54c2.35-.42,4.76-.35,7.13-.7,13.57-2.01,25.85-11.99,40.16-9.08,6.99,1.42,12.67,7.33,12.14,14.73-.76,10.66-16.6,10.93-23.63,15.04-5.2,3.04-7.41,9.29-11.22,13.71-6.15,7.16-15.62,11.14-24.59,13.28Z"/>
        <path class="st1" d="M229.64,180.43c.3,10.24-5.47,22.54-17.32,21.79-13.63-.86-20.83-14-33.26-17.55-11.78-3.36-19.19-1.76-26.47-13.8-10.54-17.43,2.52-37.08.45-56.07-1.17-10.72-6.88-15.59-2.56-27.51,8.15-22.53,32.89-20.87,48.43-7.19,5.4,4.75,14.68,18.57,15.18,25.73.87,12.39-1.48,23.89,1.36,36.36,3.08,13.52,13.77,23.72,14.19,38.24ZM226.76,178.51c-1.09-12.24-9.99-21.59-13.3-33.05-4.02-13.9-.76-25.51-1.98-38.93-.61-6.69-9.52-20.25-14.65-24.66-9.41-8.09-28.83-13.62-38.36-3.2-2.2,2.4-4.66,7.45-5.75,10.55-3.61,10.25,2.58,16.87,3.21,26.84,1.27,19.9-13.88,44.61,4.46,59.8,6.08,5.03,15.9,4.44,23.23,7.45s13,9.96,20.02,13.54c15.16,7.72,24.46-3.39,23.12-18.34Z"/>
        <path class="st1" d="M407.95,356.88c.78,5.49-3.14,11.77-8.37,13.52-9.88,3.31-23.55-3.95-33.33-6.63-9.1-2.5-18.65-3.89-28.03-4.88-13.62-1.44-33.99-.88-44.9-10.07-12.18-10.26-4.04-24.27,10.07-25.41,9.61-.78,21.61,6.27,31.47,8.47,14.23,3.17,15.96.64,28.51-3.13,9.8-2.95,17.26-.07,25.15,5.71,5.11,3.75,18.57,16.35,19.43,22.43ZM405.09,356.54c-.3-1.32-3.84-5.99-4.88-7.26-5.02-6.12-14.62-14.9-22.04-17.59-12.87-4.65-18.62,3.96-30.37,4.48-13.05.58-23.2-5.46-34.92-8.86-7.37-2.14-19.06-1.5-22.18,7.04-4.94,13.53,17.38,18.75,26.47,19.99,18.17,2.49,34.49,2.22,52.52,7.56,8.16,2.41,20.95,8.84,29.17,5.84,4.18-1.53,7.23-6.79,6.24-11.21Z"/>
        <path class="st1" d="M281.74,299.33c1.92,11.37-10.16,14.22-18.95,13.52-21.32-1.69-19.98-36.48-28.1-50.53-3.61-6.24-16.93-15.3-17.4-21.94-.27-3.91,2.98-6.39,6.57-6.79,7.06-.78,11.89,2.61,18.27,4.01,10.93,2.41,19.28-1.22,25.04,11.39,5.17,11.32,3.05,23.97,7.88,35.92,1.41,3.49,6.2,11.5,6.69,14.41ZM279.18,300.93c-.55-3.92-4.69-10.39-6.37-14.41-.83-1.99-1.65-3.97-2.26-6.05-2.89-9.69-1.5-20.18-5.51-29.65-4.93-11.63-12.52-8.34-22.59-10.33-5.96-1.18-13.4-5.65-19.51-3.98-6.5,1.77-.15,8.85,2.16,11.44,4.87,5.47,10.1,8.41,13.22,15.55,5.04,11.53,7.23,36.81,17.39,43.98,6.44,4.55,24.92,3.73,23.48-6.55Z"/>
        <path class="st1" d="M586.23,99.55c1.28,14.48-5.23,29.09-9.08,42.83-2.66,9.5-4.55,19.37-7.75,28.69-4.39,12.78-16.95,42.06-27.02,50.33-6.89,5.66-16.18,7.83-24.23,11.56-9.76,4.52-18.91,10.33-27.05,17.37-10,8.66-21.9,25.87-36.58,13.9-17.68-14.42-19.12-44.96-29.72-64.89-6.31-11.88-16.5-21.03-22.17-33.13-12.32-26.32-5.21-57.93,4.51-83.95,5.98-16.01,12.89-34.25,19.99-49.69,11.63-25.27,31.25-43.42,59.7-28.29,11.61,6.17,22.1,13.13,35.12,16.65,2.01.54,4.04.68,6.05,1.3,9.07,2.8,12.32,9.56,18.36,15.84,3,3.11,6.48,5.66,9.6,8.62,12.17,11.53,28.76,35.92,30.26,52.85ZM583.68,102.42c-.64-15.24-11.45-32.16-20.69-43.88-6.11-7.74-12.99-12.58-19.49-19.51-3.99-4.26-6.82-9.29-12.04-12.25-4.24-2.41-7.78-2.38-12.23-3.75-4.51-1.39-10.26-3.87-14.61-5.85-17.75-8.07-33.32-24.39-53.57-10.87-17.07,11.4-23.98,33.85-31.37,52.05-11.72,28.88-26.12,61.73-19.12,93.6,4.6,20.92,20.26,32.07,28.92,50.67,7.89,16.97,9.73,39.07,21.23,53.57,15.93,20.09,25.81,3.07,38.79-8.12,14.38-12.4,25.71-16.26,42.5-23.66,15.77-6.95,24.02-27.9,30.42-43.1,5.68-13.49,8.28-26,12.18-39.93,3.34-11.92,9.59-26.71,9.08-39Z"/>
        <path class="st1" d="M399.96,58.62c1.53,10.7-9.38,29.89-12.22,41.31-4.32,17.38-.83,27.86.16,44.6.25,4.19.64,14.27-5.87,13.56-6.79-.73-9.23-13.66-10.05-19.04-3.73-24.31-2.09-63.01,16.73-81.31,3.55-3.45,10.25-6.17,11.26.88ZM397.4,59.57c-.87-6.23-6.77.07-8.71,2.31-9.76,11.3-14.3,28.66-15.19,43.31-.64,10.61-.76,39.69,5.77,47.96,1.31,1.66,3.57,3.38,5.05.92,2.51-4.16-.42-17.7-.91-22.97-1.4-15.08-.56-26.64,4.46-40.92,2.7-7.67,10.57-22.99,9.51-30.6Z"/>
        <path class="st1" d="M424.24,237.01c.36,10.49-8.16,16.38-16.53,8.54-8.27-7.75-14.26-22.91-13.41-34.21.41-5.43,3.51-18,11.3-14.19,5.45,2.67,8.37,15.9,10.69,21.27,2.66,6.17,7.71,11.54,7.95,18.58ZM401.1,199.77c-.95.86-2.68,5-3.06,6.36-2.9,10.3.23,20.59,5.58,29.44,2.79,4.61,10.56,15.97,16.23,8.37,5.72-7.67-3.82-18.56-6.63-25.65-1.92-4.85-2.85-9.95-5.57-14.57-1.13-1.92-4.1-6.17-6.55-3.96Z"/>
        <path class="st1" d="M364.8,247.88c.36,4.75-1.03,10.39-5.01,13.34-5.66,4.19-13.73-3.76-16.88-8.06-3.06-4.17-4.81-9.16-7.6-13.5-3.3-5.15-7.57-9.15-10.41-14.83-6.94-13.86-9.75-41.81-8.89-57.28.28-4.93,1.89-17.46,8.95-16.66,7.78.88,8.21,14.77,8,20.5-.71,19.26-3.26,31.69,10.05,47.46,7.66,9.07,20.81,15.94,21.8,29.02ZM361.93,246.91c-1.03-9.08-9.45-14.62-15.42-20.38-14.8-14.3-17.74-25.37-17.1-45.9.22-7.16,2.61-18.51-1.76-24.74-4.78-6.81-7.76,2.95-8.36,6.94-2.14,14.33,1.05,43.71,6.47,57.29,3.06,7.68,7.99,11.94,12.11,18.57,3.05,4.91,4.9,10.45,8.81,14.85,2.2,2.48,8.21,8.02,11.53,5.44,3.46-2.69,4.2-7.96,3.73-12.08Z"/>
        <path class="st1" d="M601.59,308.92c1.07,6.78-6.67,8.58-11.95,8.99-6.87.54-13.3-2.14-20.08-2.53-12.41-.71-23.5,4.57-36.07-.99-14.07-6.22-8.72-22.44,2.14-28.78,7.48-4.37,27.7-10.89,36.16-10.49,11,.53,14.67,12.01,20.03,19.6,2.7,3.81,9.08,9.83,9.77,14.2ZM598.71,308.92c-.52-3.02-7.61-10.41-9.77-13.56-4.06-5.92-8.08-16.54-16.2-17.36-9.07-.91-32.21,6.23-39.14,12.3-5.05,4.42-8.58,14.53-2.53,19.48,9.93,8.12,28.19,2.29,40.09,3.05,8.18.52,14.49,3.91,23.15,1.45,3.06-.87,5.03-1.7,4.4-5.36Z"/>
        <path class="st1" d="M194.15,166.31c-8.54,8.35-18.05-2.15-21.57-10-5.98-13.33-2.81-20.11-1.05-33.24,1.38-10.29-2.43-12.48-4.47-21.01-3.48-14.52,12.33-29.23,24.97-17.31,12.09,11.41,8.94,39.62,8.93,55,0,8.43-.23,20.13-6.81,26.57ZM198.32,109.78c-.6-8.63-3.26-21.12-11.52-25.56-7.21-3.88-15.42,2.75-17.05,9.9-1.66,7.26,1.48,10,3.43,16.2,4.01,12.75-3.39,23.83-.49,37.57,3.46,16.38,19.15,29.2,24.61,5.75,1.98-8.49.78-17.15.78-25.75,0-5.99.66-12.06.24-18.11Z"/>
        <path class="st1" d="M392.62,354.95c1.46,8.55-8.39,6.55-13.12,3.86-2.45-1.39-4.66-3.89-7.13-5.01-3.25-1.48-14.24-2.23-12.18-8.1,1.84-5.27,12.46-5.2,16.86-3.93,5.08,1.47,14.64,7.67,15.58,13.18ZM389.75,354.94c-.08-.36-2.4-3.44-2.81-3.9-3.85-4.28-11.22-7.92-17.05-7.48-2.3.17-10.33,2.34-5.65,4.93,2.53,1.4,6.08,1.44,8.86,2.64,3.05,1.32,5.18,3.9,7.99,5.43,2.7,1.47,10.02,4.28,8.66-1.63Z"/>
        <path class="st1" d="M558.76,110.1c.73,10.51-1.48,21.34-4.61,31.32-3.5,11.13-9.04,17.81-14.52,27.67-6.11,11-10.82,24.48-20.55,32.83-7.53,6.46-14.02,4.52-22.92,6.16-11.22,2.07-25.17,8.98-36.37,2.63-4.86-2.75-9.26-13.47-10.95-18.78-4.08-12.81-2.49-26.64-9.68-38.59-7.38-12.26-18.23-11.37-19-28.62-.82-18.44,7.66-33.9,12.88-50.76,4.2-13.56,9.47-42.2,19.88-51.4,9.7-8.58,24.35,1.56,33.82,5.82,17.56,7.9,33.95,12.1,47.35,27.11,7.94,8.89,19.08,29.06,22.11,40.53,1.2,4.54,2.22,9.37,2.55,14.07ZM556.2,112.97c-.48-17.1-9.03-33.66-18.11-47.73-13.39-20.74-31.34-24.85-52.31-34.3-8.13-3.66-22.67-13.62-30.95-6.46-9.99,8.65-14.94,36.53-18.92,49.48-5.42,17.66-14.31,33.3-12.88,52.67.85,11.44,8.1,12.63,14.56,19.96,11.95,13.57,8.9,29.11,13.99,44.83,1.24,3.84,5.6,14.34,8.75,16.5,9.62,6.61,26.25-1.04,36.47-2.73,5.33-.88,11.67-.26,16.52-2.65,11.58-5.69,19.33-26.92,25.67-37.94,3.08-5.36,7.19-10.6,9.7-16.19,4.34-9.69,7.82-24.86,7.52-35.45Z"/>
        <path class="st1" d="M542.78,126.72c1.27,13.14-3.75,23.73-10.19,34.69-7.43,12.64-20.04,29.47-35.34,32.42-39.77,7.66-45.55-47.52-48.31-74.87-1.81-17.91-.05-34.4,2.93-52.05,1.36-8.05,2.93-21.58,9.53-26.91,8.06-6.51,14.26,1.21,20.73,5.48,5.45,3.6,12.44,7.42,18.25,10.51,7.18,3.83,20.63,8.9,25.73,14.85,5.05,5.88,7.97,23.97,10.15,32.04,1.98,7.31,5.82,16.53,6.53,23.84ZM540.22,128.32c-.7-8.2-4.93-18.54-7.16-26.72-1.94-7.1-4.86-24.21-9.19-29.16-4.61-5.28-18.46-10.67-25.09-14.22-5.91-3.16-12.9-6.97-18.44-10.64-4.22-2.8-9.81-9.1-15.23-6.75-7.42,3.22-9.08,18.01-10.32,25.16-4.43,25.47-4.67,43.95-1.01,69.54,2.49,17.43,8.73,50.84,29.29,55.41,20.59,4.58,34.67-11.21,44.61-26.79,6.59-10.32,13.63-23.22,12.55-35.84Z"/>
        <path class="st1" d="M521.37,103.38c1.27,19.24-3.12,56.94-29.79,55.06-16.74-1.18-18.49-22.34-21.33-34.6-4.27-18.45-15.28-44.27,1.84-59.08,10.89-9.42,21.29-1.8,30.05,6.07,9.73,8.74,18.33,18.92,19.23,32.55ZM518.81,103.7c-1.35-14.97-14.69-29.55-26.9-37.35-12.43-7.94-22.91,1.32-25.96,13.69-2.73,11.08,4.43,32.29,7.1,43.86,3.05,13.19,4.18,33.48,23,31.65,20.05-1.95,24.15-36.45,22.76-51.85Z"/>
        <path class="st1" d="M512.12,117.76c1.45,10.93-10.29,12.24-17.46,6.6-8.51-6.69-17.64-27.31-6.58-35.3,7.73-5.58,15.39,6.5,18.01,12.35,1.42,3.17,5.64,13.38,6.03,16.34ZM509.25,117.43c-.44-2.58-4.36-12-5.62-14.84-2-4.51-6.63-12.63-12.37-11.94-2.51.3-5.31,4.82-5.58,7.2-.98,8.67,6.48,24.37,15.41,26.78,5.41,1.46,9.15-1.43,8.16-7.21Z"/>
      </g>
    </g>
  </g>
</svg>